<?xml version="1.0" standalone="no"?>
<!DOCTYPE svg PUBLIC "-//W3C//DTD SVG 20010904//EN"
 "http://www.w3.org/TR/2001/REC-SVG-20010904/DTD/svg10.dtd">
<svg version="1.0" xmlns="http://www.w3.org/2000/svg"
 width="500.000000pt" height="500.000000pt" viewBox="0 0 500.000000 500.000000"
 preserveAspectRatio="xMidYMid meet">
<metadata>
Created by potrace 1.14, written by Peter Selinger 2001-2017
</metadata>
<g transform="translate(0.000000,500.000000) scale(0.100000,-0.100000)"
fill="#000000" stroke="none">
<path d="M2300 4484 c0 -3 5 -14 10 -25 6 -11 8 -24 5 -29 -8 -14 -35 14 -35
36 0 13 -6 15 -32 10 -33 -6 -48 -20 -48 -45 0 -10 9 -12 33 -8 41 6 53 -1 53
-30 0 -14 -8 -24 -23 -28 -25 -6 -42 -50 -25 -67 10 -10 52 39 52 61 0 5 6 14
14 18 19 12 49 80 42 98 -5 14 -46 22 -46 9z"/>
<path d="M2142 4437 c-17 -8 -22 -17 -19 -34 2 -13 1 -23 -3 -23 -12 0 -20
-28 -14 -45 8 -21 25 -18 57 10 33 29 35 45 5 46 l-23 0 23 10 c14 5 22 16 20
26 -4 21 -17 24 -46 10z"/>
<path d="M2053 4408 c-26 -12 -40 -45 -25 -60 12 -12 67 15 76 38 12 32 -10
42 -51 22z"/>
<path d="M2217 4403 c-16 -15 -6 -34 15 -31 29 4 38 38 10 38 -10 0 -22 -3
-25 -7z"/>
<path d="M1958 4364 c-29 -15 -39 -56 -17 -70 17 -10 64 30 64 56 0 29 -13 33
-47 14z"/>
<path d="M2165 4335 c-30 -29 -29 -49 4 -53 30 -5 53 16 49 46 -4 35 -23 38
-53 7z"/>
<path d="M2045 4327 c-22 -18 -26 -28 -20 -46 6 -20 12 -22 40 -18 26 4 33 2
29 -8 -8 -20 14 -55 34 -55 23 0 42 19 42 40 0 20 -37 56 -47 46 -4 -3 -12 8
-17 26 -14 41 -28 44 -61 15z"/>
<path d="M1870 4319 c-32 -13 -61 -39 -54 -50 3 -5 21 -9 39 -9 26 0 39 6 51
25 8 13 13 29 9 35 -7 12 -12 12 -45 -1z"/>
<path d="M1962 4284 c-34 -23 -28 -44 12 -44 39 0 50 11 41 40 -8 24 -23 25
-53 4z"/>
<path d="M2190 4260 c-13 -24 -10 -75 5 -75 10 0 27 32 40 73 5 18 2 22 -14
22 -11 0 -25 -9 -31 -20z"/>
<path d="M1750 4236 c-27 -30 -21 -56 15 -56 45 0 86 60 49 74 -27 10 -40 7
-64 -18z"/>
<path d="M1874 4242 c-17 -11 -36 -51 -29 -62 3 -6 22 -10 41 -10 27 0 37 5
46 24 6 14 8 32 5 40 -7 17 -44 21 -63 8z"/>
<path d="M2029 4221 c-12 -18 -14 -18 -25 -3 -14 19 -39 10 -58 -22 -9 -13 -7
-20 6 -30 12 -9 14 -16 7 -23 -6 -6 -9 -23 -7 -39 4 -35 29 -42 63 -20 32 21
33 54 1 62 -23 5 -23 7 -8 23 16 16 17 16 24 -2 5 -12 16 -17 30 -15 20 3 23
9 23 43 0 34 -4 41 -22 43 -14 2 -27 -4 -34 -17z"/>
<path d="M1776 4150 c-39 -44 -45 -60 -20 -60 21 0 72 30 78 46 6 16 -4 54
-14 54 -4 0 -24 -18 -44 -40z"/>
<path d="M2106 4174 c-22 -22 -21 -54 2 -54 21 0 48 42 38 59 -10 15 -22 14
-40 -5z"/>
<path d="M1676 4154 c-22 -33 -17 -68 10 -72 24 -3 61 55 51 82 -10 24 -43 19
-61 -10z"/>
<path d="M2161 4161 c-15 -28 -14 -66 3 -80 20 -16 38 18 34 61 -4 37 -22 47
-37 19z"/>
<path d="M1857 4143 c-4 -3 -7 -16 -7 -29 0 -17 -4 -21 -20 -17 -24 6 -60 -22
-60 -47 0 -9 9 -25 20 -35 19 -17 21 -17 40 0 11 10 20 29 20 42 0 20 2 22 19
12 10 -7 26 -9 35 -6 19 7 39 54 32 74 -5 13 -67 18 -79 6z"/>
<path d="M2056 4094 c-12 -32 -7 -64 12 -64 11 0 23 -13 30 -32 l13 -33 20 24
c46 56 31 115 -18 70 l-26 -24 16 25 c9 13 17 30 17 37 0 19 -57 16 -64 -3z"/>
<path d="M1717 4073 c-4 -3 -7 -22 -8 -42 l-1 -36 -12 35 c-24 67 -76 42 -76
-36 0 -32 42 -53 66 -33 9 7 23 14 32 16 36 5 55 66 30 91 -14 14 -22 15 -31
5z"/>
<path d="M1912 4050 c-26 -25 -27 -33 -6 -51 14 -11 19 -10 35 10 22 27 25 61
6 61 -7 0 -23 -9 -35 -20z"/>
<path d="M1982 4043 c-16 -14 -20 -25 -15 -46 7 -36 28 -44 54 -21 13 12 19
28 17 48 -4 37 -26 44 -56 19z"/>
<path d="M1845 4014 c-20 -21 -15 -38 13 -42 19 -3 22 1 22 27 0 35 -11 39
-35 15z"/>
<path d="M1738 3970 c-16 -16 -34 -30 -39 -30 -13 0 -11 -24 3 -38 9 -9 14 -7
24 6 8 10 13 12 14 5 0 -19 57 -16 64 3 14 38 0 84 -27 84 -5 0 -22 -13 -39
-30z"/>
<path d="M1921 3971 c-26 -26 -26 -36 1 -63 19 -19 22 -20 33 -4 11 15 13 14
19 -6 6 -23 7 -23 22 5 16 30 10 52 -12 43 -8 -3 -14 1 -14 8 0 7 -6 19 -14
25 -12 10 -19 8 -35 -8z"/>
<path d="M2041 3964 c-31 -39 -35 -63 -15 -85 9 -10 20 -19 24 -19 3 0 17 25
30 56 19 47 20 58 9 65 -21 13 -26 11 -48 -17z"/>
<path d="M1826 3952 c-3 -5 -8 -28 -12 -52 l-7 -43 41 5 40 6 -5 -34 c-7 -41
21 -59 43 -29 13 17 14 17 14 2 0 -21 8 -21 31 -1 17 16 18 15 9 -15 -7 -26
-5 -36 14 -58 l23 -27 18 27 c13 21 15 37 10 77 -7 52 -25 65 -44 33 -9 -16
-10 -16 -11 5 0 28 -14 28 -34 0 l-16 -22 0 26 c0 27 -30 55 -44 41 -3 -3 -6
7 -6 24 0 19 -6 33 -16 37 -22 8 -42 7 -48 -2z"/>
<path d="M1610 3905 c-7 -21 -9 -52 -5 -76 7 -39 8 -41 41 -37 27 3 34 0 36
-17 5 -31 32 -25 36 9 4 35 -14 58 -29 36 -8 -11 -9 -3 -4 29 11 81 -51 128
-75 56z"/>
<path d="M1727 3884 c-12 -12 -8 -59 7 -80 14 -19 15 -18 41 6 37 34 31 74
-10 78 -17 2 -34 0 -38 -4z"/>
<path d="M1812 3838 c-7 -7 -12 -27 -12 -46 0 -32 2 -33 33 -30 30 3 32 6 35
46 3 38 1 42 -20 42 -13 0 -29 -5 -36 -12z"/>
<path d="M1746 3767 c-12 -9 -17 -23 -14 -42 2 -24 8 -31 29 -33 22 -3 28 2
33 23 14 54 -10 80 -48 52z"/>
<path d="M1874 3765 c-11 -27 5 -65 26 -65 12 0 20 7 20 16 0 13 3 14 14 5 17
-14 41 11 32 34 -6 18 -26 20 -26 3 0 -6 -7 -4 -18 5 -23 21 -41 22 -48 2z"/>
<path d="M1606 3748 c-10 -39 -7 -105 7 -116 23 -19 68 -26 77 -11 7 10 11 6
19 -14 13 -32 24 -34 52 -6 13 13 19 30 17 47 -3 24 -7 27 -41 27 -33 0 -38 3
-48 33 -20 60 -71 85 -83 40z"/>
<path d="M1812 3725 c-7 -14 -12 -35 -12 -45 0 -20 30 -42 52 -38 6 2 14 -5
16 -14 5 -24 -14 -23 -40 2 -12 11 -25 20 -29 20 -9 0 -19 -38 -19 -74 0 -23
-3 -27 -12 -18 -17 17 -49 15 -64 -5 -12 -17 -13 -16 -14 4 0 26 -43 58 -66
49 -12 -5 -15 -19 -13 -64 1 -31 -1 -65 -5 -74 -4 -9 -35 -31 -69 -49 -216
-112 -220 -115 -275 -250 -61 -148 -75 -321 -36 -447 17 -58 17 -57 0 -43 -11
9 -26 7 -65 -8 -65 -24 -141 -69 -141 -82 0 -5 11 -21 25 -34 62 -63 223 9
200 88 -4 12 11 -12 32 -53 49 -94 84 -150 139 -221 43 -56 43 -57 24 -74 -27
-25 -26 -55 2 -55 12 0 30 7 40 16 14 14 20 14 33 4 30 -25 24 -4 -12 40 -19
25 -66 90 -103 145 -121 180 -159 274 -165 410 l-5 90 14 -83 c8 -46 18 -88
23 -93 11 -11 194 -1 214 12 9 5 6 25 -14 86 -14 43 -29 96 -32 118 -4 22 -12
45 -17 52 -14 17 -108 26 -140 14 -25 -9 -28 -8 -28 9 0 17 9 19 82 22 l82 3
18 70 c10 39 21 79 24 90 4 17 -4 26 -43 48 -31 17 -41 27 -28 27 11 0 34 -9
50 -20 17 -11 36 -20 43 -20 8 0 44 18 80 39 37 22 87 45 112 51 42 10 48 16
80 78 19 36 41 68 48 70 7 2 2 -13 -12 -33 -14 -20 -30 -51 -36 -70 -10 -31
-9 -38 14 -67 28 -37 106 -195 106 -215 0 -23 25 -14 57 20 23 24 32 45 37 84
7 59 44 147 88 212 l30 44 -54 51 c-29 27 -59 49 -67 47 -7 -1 -2 12 14 33 32
42 32 91 0 91 -29 0 -67 -63 -63 -102 4 -37 -2 -42 -18 -15 -9 14 -8 22 2 37
21 28 18 48 -6 42 -15 -4 -20 0 -20 15 0 27 -18 58 -34 58 -7 0 -18 -11 -24
-25z m-565 -727 c-3 -7 -5 -2 -5 12 0 14 2 19 5 13 2 -7 2 -19 0 -25z"/>
<path d="M1700 3720 c0 -19 3 -21 12 -12 9 9 9 15 0 24 -9 9 -12 7 -12 -12z"/>
<path d="M642 3644 c-31 -21 -28 -31 15 -49 36 -15 37 -15 65 12 15 15 28 33
28 40 0 19 -80 17 -108 -3z"/>
<path d="M856 3651 c-60 -5 -72 -10 -89 -33 -17 -23 -19 -31 -9 -53 14 -30 25
-31 77 -5 22 11 59 25 82 30 61 15 86 73 30 68 -12 -1 -53 -4 -91 -7z"/>
<path d="M2197 3644 c-106 -20 -182 -46 -182 -63 0 -8 21 -29 46 -48 l46 -32
73 30 c94 40 145 37 252 -14 42 -20 79 -37 82 -37 10 0 -34 81 -71 133 l-35
47 -66 -1 c-37 -1 -102 -8 -145 -15z"/>
<path d="M2440 3649 c0 -6 11 -25 26 -41 14 -17 36 -53 50 -80 l24 -48 33 17
c49 26 203 31 251 8 20 -10 38 -16 40 -14 2 2 8 22 13 44 6 22 14 47 17 56 6
14 -6 19 -81 32 -184 33 -373 46 -373 26z"/>
<path d="M1020 3633 c0 -25 37 -83 53 -83 20 0 37 22 37 48 0 17 -9 27 -35 38
-45 18 -55 18 -55 -3z"/>
<path d="M590 3564 c-10 -30 -10 -39 4 -52 14 -14 17 -14 36 3 22 20 26 55 8
73 -21 21 -36 13 -48 -24z"/>
<path d="M1136 3582 c-7 -22 10 -132 23 -145 15 -15 38 -1 56 33 19 37 13 60
-26 100 -35 35 -45 37 -53 12z"/>
<path d="M2909 3573 c-7 -16 -14 -49 -16 -74 -7 -63 28 -127 126 -231 81 -86
118 -110 199 -127 29 -6 69 -18 89 -26 24 -10 40 -12 46 -6 6 6 14 54 18 108
4 54 15 118 23 142 9 24 16 51 16 61 0 35 -222 128 -395 165 -93 19 -94 19
-106 -12z"/>
<path d="M888 3570 c-29 -17 -21 -30 15 -24 l32 5 -35 -16 c-19 -9 -35 -17
-37 -19 -2 -2 6 -24 17 -49 18 -41 25 -47 51 -47 43 0 65 15 78 50 11 33 3 68
-22 88 -21 18 -79 24 -99 12z m78 -76 c-4 -9 -9 -15 -11 -12 -3 3 -3 13 1 22
4 9 9 15 11 12 3 -3 3 -13 -1 -22z"/>
<path d="M2197 3516 c-103 -43 -132 -68 -173 -151 -24 -48 -39 -95 -42 -128
-5 -64 7 -81 119 -171 43 -35 104 -94 135 -132 31 -38 62 -70 69 -72 8 -2 27
24 45 63 17 37 59 99 93 138 l61 71 2 162 2 162 -88 41 c-103 48 -140 51 -223
17z"/>
<path d="M1047 3514 c-14 -15 -8 -94 8 -101 27 -10 56 27 53 66 -3 30 -7 36
-28 39 -14 2 -29 0 -33 -4z"/>
<path d="M665 3500 c3 -5 10 -10 16 -10 5 0 9 5 9 10 0 6 -7 10 -16 10 -8 0
-12 -4 -9 -10z"/>
<path d="M2617 3496 c-59 -16 -66 -23 -77 -72 -11 -49 -15 -240 -5 -274 5 -19
28 -35 94 -67 47 -23 131 -69 186 -102 55 -33 105 -61 111 -61 6 0 24 19 39
43 16 23 57 72 93 109 l65 67 -81 76 c-51 48 -103 110 -142 170 -37 57 -73
101 -90 110 -35 18 -127 19 -193 1z"/>
<path d="M735 3480 c4 -6 11 -8 16 -5 14 9 11 15 -7 15 -8 0 -12 -5 -9 -10z"/>
<path d="M1242 3441 c-7 -23 -10 -46 -7 -51 10 -16 41 -12 58 8 16 17 15 20
-11 52 l-28 33 -12 -42z"/>
<path d="M579 3448 c-2 -44 3 -93 11 -107 6 -11 12 -7 24 17 21 41 20 75 -2
95 -25 23 -32 21 -33 -5z"/>
<path d="M771 3431 c-29 -29 -28 -83 2 -114 31 -33 135 -73 156 -60 26 16 24
50 -3 98 -46 77 -118 113 -155 76z"/>
<path d="M1110 3421 c-25 -47 -1 -86 47 -79 25 3 28 1 28 -25 0 -37 26 -57 49
-38 18 15 21 53 6 82 -9 15 -15 17 -30 9 -16 -9 -20 -7 -20 5 0 18 -43 65 -59
65 -6 0 -15 -9 -21 -19z"/>
<path d="M3415 3338 c-10 -40 -20 -107 -22 -149 -6 -92 11 -139 102 -264 110
-153 167 -205 204 -186 50 27 120 172 121 249 0 29 3 32 20 27 11 -3 20 -2 20
3 0 6 9 8 20 5 24 -6 53 15 46 34 -3 8 2 13 14 13 10 0 21 4 25 10 8 13 -31
50 -54 50 -26 0 -54 -39 -40 -56 6 -8 5 -13 -5 -17 -10 -4 -13 -1 -9 9 3 9 -2
14 -17 14 -16 0 -20 4 -16 15 4 10 -2 19 -17 25 -12 5 -16 9 -9 9 6 1 12 8 12
17 0 11 6 13 19 9 14 -4 25 3 40 24 12 16 21 34 21 40 0 17 -45 13 -71 -7 -14
-10 -39 -17 -61 -16 -30 1 -50 13 -115 72 -69 62 -184 142 -204 142 -4 0 -15
-33 -24 -72z"/>
<path d="M1006 3378 c-21 -30 -21 -78 0 -78 26 0 74 40 74 61 0 12 -10 23 -26
29 -33 13 -30 14 -48 -12z"/>
<path d="M1277 3363 c-3 -4 -8 -25 -12 -46 -7 -35 -6 -37 19 -37 27 0 42 28
34 67 -3 19 -32 30 -41 16z"/>
<path d="M1582 3317 c-77 -39 -85 -46 -110 -96 -39 -81 -35 -153 17 -313 45
-137 86 -209 140 -245 19 -13 36 -22 38 -20 1 2 8 50 13 106 14 136 36 192
110 274 43 49 60 76 60 96 0 35 -61 169 -96 210 -35 42 -69 40 -172 -12z"/>
<path d="M1084 3315 c-8 -34 1 -55 25 -55 24 0 31 17 18 53 -11 34 -35 35 -43
2z"/>
<path d="M638 3303 c-27 -7 -21 -23 8 -23 14 0 44 -11 67 -24 23 -14 73 -32
111 -40 37 -9 96 -27 130 -41 69 -28 80 -30 71 -15 -12 19 -81 49 -176 75 -52
14 -110 37 -130 51 -34 24 -47 26 -81 17z"/>
<path d="M4090 3275 c0 -15 26 -20 54 -9 28 11 17 24 -19 24 -24 0 -35 -5 -35
-15z"/>
<path d="M4183 3280 c-23 -10 -31 -34 -13 -45 5 -3 7 -12 3 -20 -6 -18 1 -19
28 -4 11 5 17 14 14 18 -2 5 2 14 10 21 36 30 8 50 -42 30z"/>
<path d="M4264 3266 c5 -21 3 -23 -15 -19 -17 5 -20 2 -17 -18 4 -29 54 -41
64 -15 3 9 13 16 22 16 13 0 12 -3 -4 -15 -12 -9 -15 -17 -8 -22 7 -5 4 -14
-8 -25 -10 -10 -20 -13 -23 -8 -4 6 -1 10 4 10 6 0 11 5 11 10 0 6 -7 10 -15
10 -8 0 -15 -6 -15 -14 0 -8 -4 -17 -9 -20 -5 -4 -7 2 -4 12 2 10 -3 25 -12
32 -15 12 -19 12 -31 -5 -18 -25 -18 -55 1 -55 11 0 13 -8 9 -30 -7 -32 3 -38
25 -17 11 10 12 8 3 -9 -6 -12 -25 -24 -42 -27 -21 -5 -30 -12 -30 -27 0 -11
5 -20 11 -20 19 0 69 34 69 46 0 7 10 14 21 16 12 2 27 12 33 23 15 27 48 50
67 47 22 -4 37 17 45 64 6 39 4 41 -25 54 -18 7 -34 10 -38 7 -3 -4 -13 -3
-22 2 -9 5 -29 11 -45 15 -26 6 -28 5 -22 -18z m108 -60 c-4 -7 -8 -5 -10 7
-2 9 -8 17 -13 17 -5 0 -9 5 -9 12 0 6 8 3 20 -7 11 -10 16 -23 12 -29z m-12
-26 c0 -5 -5 -10 -11 -10 -5 0 -7 5 -4 10 3 6 8 10 11 10 2 0 4 -4 4 -10z"/>
<path d="M4023 3273 c-16 -6 -17 -29 -2 -39 14 -9 59 16 59 33 0 13 -32 16
-57 6z"/>
<path d="M3965 3261 c-3 -6 0 -13 7 -18 19 -12 16 -57 -4 -65 -29 -12 -22 -38
10 -38 35 0 45 9 31 27 -9 10 -8 13 3 13 7 0 18 -15 23 -32 8 -26 15 -33 35
-33 19 0 26 6 28 24 2 13 -2 27 -8 31 -8 5 -5 9 8 12 18 5 20 2 15 -28 -6 -37
9 -44 48 -24 22 13 26 58 5 66 -8 3 -13 11 -10 17 8 25 -12 39 -48 32 -54 -10
-65 -20 -50 -45 10 -17 10 -20 -3 -20 -8 0 -15 9 -15 19 0 11 -9 22 -19 26
-10 3 -21 15 -24 25 -5 21 -22 26 -32 11z"/>
<path d="M3900 3235 c0 -18 45 -49 60 -40 16 10 12 42 -6 49 -28 11 -54 6 -54
-9z"/>
<path d="M3887 3183 c-4 -3 -7 -15 -7 -25 0 -30 54 -21 58 10 3 17 -1 22 -21
22 -13 0 -27 -3 -30 -7z"/>
<path d="M1858 3063 c-99 -98 -132 -153 -148 -253 -18 -114 -13 -208 14 -265
51 -110 247 -245 357 -245 44 0 128 20 142 34 7 8 19 66 26 132 7 66 19 155
27 199 8 44 14 96 14 116 0 50 -61 141 -140 209 -34 30 -88 79 -120 108 -31
28 -63 52 -70 52 -7 0 -53 -39 -102 -87z"/>
<path d="M3841 3141 c-17 -11 -7 -45 12 -39 13 5 23 48 10 48 -4 0 -14 -4 -22
-9z"/>
<path d="M3122 3108 c-46 -33 -148 -173 -173 -238 -18 -47 -20 -69 -16 -150 9
-146 68 -324 116 -350 50 -26 207 -2 305 47 102 52 208 151 254 240 21 39 13
61 -55 150 -37 48 -93 122 -124 163 -31 41 -65 83 -76 92 -28 25 -102 55 -153
63 -37 5 -51 2 -78 -17z"/>
<path d="M3970 3111 c0 -11 10 -27 22 -35 l22 -16 -22 0 c-28 0 -62 -17 -62
-30 0 -6 25 -10 55 -10 41 0 55 4 55 14 0 8 -6 17 -12 19 -8 3 -6 6 5 6 19 1
22 23 7 52 -15 27 -70 27 -70 0z"/>
<path d="M4170 3120 c0 -5 7 -10 15 -10 8 0 15 5 15 10 0 6 -7 10 -15 10 -8 0
-15 -4 -15 -10z"/>
<path d="M4075 3097 c-22 -17 -12 -37 18 -38 20 -1 21 -2 2 -6 -27 -7 -46 -23
-39 -34 3 -5 27 -9 55 -9 42 0 49 3 49 20 0 11 -7 20 -15 20 -14 0 -14 3 0 30
l16 30 -34 0 c-18 0 -41 -6 -52 -13z"/>
<path d="M2493 3071 c-117 -85 -151 -166 -203 -476 -45 -270 -43 -284 52 -325
45 -20 75 -24 195 -28 156 -5 220 8 349 69 88 41 95 63 61 177 -43 142 -50
181 -49 293 1 97 -1 109 -21 127 -32 29 -258 160 -305 176 -39 14 -42 14 -79
-13z"/>
<path d="M4162 3088 c-19 -19 -14 -30 10 -26 13 2 24 11 26 21 4 20 -18 23
-36 5z"/>
<path d="M3845 2953 c-7 -46 -42 -124 -85 -189 l-20 -31 40 -37 c47 -42 77
-56 125 -56 29 0 37 6 64 50 17 28 38 50 46 50 22 0 19 17 -16 74 -39 64 -131
186 -140 186 -4 0 -10 -21 -14 -47z"/>
<path d="M1380 2751 c-47 -4 -90 -10 -97 -14 -13 -8 8 -81 42 -148 33 -64 106
-159 134 -173 25 -14 34 -11 134 33 59 26 110 50 113 54 13 13 -30 98 -60 120
-17 12 -59 48 -93 79 -34 32 -68 57 -75 56 -7 0 -51 -4 -98 -7z"/>
<path d="M3667 2693 c-9 -2 -27 -23 -38 -46 -12 -23 -32 -57 -46 -75 -14 -19
-22 -40 -19 -50 3 -10 31 -42 61 -72 64 -64 63 -64 181 30 42 34 105 77 140
97 35 20 61 39 58 42 -3 3 -40 4 -82 3 -76 -3 -78 -2 -130 38 -50 39 -77 46
-125 33z"/>
<path d="M1206 2521 c-44 -57 -61 -111 -35 -111 7 0 43 9 80 20 56 17 69 25
69 41 0 22 -47 109 -59 109 -5 0 -29 -27 -55 -59z"/>
<path d="M930 2551 c-38 -20 -120 -113 -120 -136 0 -24 30 -45 66 -45 45 0 69
12 122 63 48 47 55 84 22 117 -25 25 -46 25 -90 1z"/>
<path d="M1071 2474 c-26 -33 -26 -46 -1 -69 19 -17 21 -17 41 1 22 20 49 66
49 84 0 5 -15 10 -34 10 -25 0 -40 -7 -55 -26z"/>
<path d="M3486 2470 c-22 -17 -77 -49 -123 -73 -45 -23 -85 -47 -87 -52 -15
-39 46 -235 73 -235 20 0 123 61 179 107 50 41 122 128 122 148 0 17 -100 135
-114 135 -6 0 -29 -14 -50 -30z"/>
<path d="M1606 2435 c-61 -23 -111 -46 -113 -51 -6 -17 53 -96 114 -156 59
-58 164 -128 193 -128 8 0 33 22 55 49 21 28 58 66 82 86 24 20 43 42 43 49 0
8 -31 32 -69 55 -38 22 -94 63 -124 91 -30 27 -59 49 -63 49 -5 -1 -58 -20
-118 -44z"/>
<path d="M1260 2421 c-14 -4 -27 -17 -30 -31 -5 -21 -7 -22 -13 -7 -9 23 -68
23 -98 -2 -21 -17 -22 -23 -14 -57 8 -33 15 -40 39 -42 15 -2 41 2 57 8 23 10
29 19 29 43 0 31 0 31 16 9 32 -47 93 -20 97 43 2 38 0 40 -28 42 -16 1 -41
-2 -55 -6z"/>
<path d="M990 2398 c-45 -31 -74 -72 -66 -93 5 -15 15 -16 63 -10 74 9 83 13
83 39 0 19 -34 86 -43 86 -2 0 -19 -10 -37 -22z"/>
<path d="M778 2353 c-19 -22 -48 -105 -48 -138 0 -22 4 -25 35 -25 27 0 44 9
80 43 25 24 46 53 47 65 0 12 1 27 2 33 1 7 -19 18 -44 25 -57 17 -54 17 -72
-3z"/>
<path d="M1350 2351 c-22 -43 -2 -87 37 -79 24 4 28 41 7 72 -20 31 -30 32
-44 7z"/>
<path d="M2977 2332 c-10 -11 -44 -31 -75 -43 -104 -41 -102 -39 -102 -140 0
-118 18 -166 67 -175 145 -27 447 71 429 139 -3 12 -14 61 -25 109 -11 48 -21
93 -23 100 -3 7 -27 12 -64 13 -32 0 -88 4 -124 9 -59 7 -67 6 -83 -12z"/>
<path d="M1048 2293 c-34 -21 -41 -38 -28 -64 13 -23 59 -37 70 -20 4 8 9 1
13 -18 4 -16 15 -35 26 -40 16 -9 24 -5 50 24 35 40 40 70 13 84 -20 10 -58 5
-79 -11 -8 -7 -13 0 -15 23 -4 39 -14 44 -50 22z"/>
<path d="M1241 2291 c-6 -11 -11 -31 -11 -45 0 -23 4 -26 39 -26 45 0 64 18
59 57 -3 24 -8 28 -40 31 -28 2 -39 -1 -47 -17z"/>
<path d="M3584 2239 c-44 -40 -109 -92 -146 -117 -65 -43 -88 -70 -50 -58 12
4 27 -3 42 -19 28 -30 50 -32 80 -7 l22 18 -32 28 c-26 22 -30 30 -20 39 10 9
14 9 18 -2 3 -8 16 -25 28 -38 13 -13 24 -29 24 -36 0 -22 67 -60 95 -53 27 7
33 34 13 54 -9 9 -7 9 12 0 37 -17 36 -54 -2 -62 -23 -5 -29 -10 -26 -27 7
-52 73 -48 73 4 -1 22 5 26 38 30 21 3 41 8 44 11 12 12 -31 46 -59 46 -15 0
-28 4 -28 9 0 5 9 7 20 4 26 -7 53 15 47 39 -3 11 0 18 9 18 8 0 14 5 14 11 0
6 7 9 15 6 21 -9 27 9 8 24 -12 10 -17 11 -20 2 -5 -14 -36 13 -46 40 -8 21
-30 22 -47 3 -9 -12 -7 -17 9 -28 27 -17 27 -34 0 -41 -17 -5 -20 -11 -17 -31
5 -24 4 -24 -16 -11 -36 26 -82 12 -58 -18 8 -9 1 -12 -28 -12 l-39 -1 30 18
c16 10 29 21 29 26 0 13 -43 50 -64 54 -17 3 -17 4 4 23 14 13 20 15 18 6 -2
-8 8 -17 22 -22 14 -4 19 -7 13 -8 -22 -2 -14 -21 12 -33 21 -9 32 -8 61 5 40
19 41 40 2 45 -20 2 -24 7 -21 26 4 18 10 22 29 18 16 -3 24 0 24 10 0 17 -31
48 -48 48 -6 0 -9 7 -6 15 10 25 -1 18 -82 -56z m79 19 c3 -8 -4 -13 -18 -13
-18 0 -21 3 -13 13 6 6 14 12 18 12 4 0 10 -6 13 -12z"/>
<path d="M2150 2289 c-30 -5 -75 -11 -100 -15 -37 -5 -55 -16 -115 -74 -38
-38 -78 -82 -88 -99 l-18 -30 110 -35 c123 -39 286 -69 346 -64 l40 3 8 80 c4
44 9 102 10 130 l2 49 -60 33 c-33 17 -64 32 -70 31 -5 0 -35 -4 -65 -9z"/>
<path d="M910 2273 c0 -4 -16 -26 -35 -47 -33 -38 -46 -76 -25 -76 20 0 113
40 131 56 19 17 25 49 12 57 -17 10 -83 17 -83 10z"/>
<path d="M1343 2234 c-51 -22 -57 -74 -8 -74 30 0 87 53 79 74 -7 19 -28 19
-71 0z"/>
<path d="M2380 2177 c-16 -56 -23 -130 -16 -171 6 -31 12 -37 49 -48 55 -16
279 -16 336 1 40 11 43 14 36 39 -3 15 -9 70 -12 122 l-5 95 -188 0 -188 0
-12 -38z"/>
<path d="M970 2178 c-22 -36 -14 -62 22 -74 45 -14 80 73 39 96 -30 16 -40 12
-61 -22z"/>
<path d="M1223 2180 c-31 -13 -43 -25 -43 -40 0 -27 22 -34 64 -20 43 14 57
30 49 58 -7 27 -16 27 -70 2z"/>
<path d="M693 2144 c-9 -22 -17 -61 -17 -89 l-1 -50 40 0 c39 0 41 2 67 55 34
69 32 92 -7 101 -16 4 -38 10 -48 14 -13 6 -21 -1 -34 -31z"/>
<path d="M1060 2132 c-54 -54 -25 -99 31 -46 33 31 36 46 14 64 -12 10 -20 7
-45 -18z"/>
<path d="M862 2143 c-31 -6 -37 -25 -18 -62 15 -27 15 -30 1 -25 -20 8 -49
-18 -66 -58 -15 -36 -3 -48 47 -48 38 0 58 21 50 54 -5 20 -3 23 13 19 14 -3
24 3 35 24 l15 28 1 -27 c0 -36 33 -38 56 -3 13 20 14 28 4 40 -15 18 -46 20
-53 3 -3 -7 -6 -2 -6 13 -2 43 -20 53 -79 42z"/>
<path d="M3823 2123 c-7 -2 -13 -11 -13 -19 0 -8 -4 -14 -9 -14 -5 0 -13 -9
-16 -21 -7 -22 18 -59 42 -59 7 0 13 -7 13 -16 0 -8 16 -22 35 -30 19 -8 35
-19 35 -24 0 -5 9 -14 20 -20 23 -12 65 4 55 21 -7 11 20 41 29 32 3 -4 6 1 6
9 0 11 6 14 20 11 11 -3 20 -1 20 5 0 15 -28 34 -40 27 -5 -3 -10 1 -10 9 0 9
-7 16 -15 16 -9 0 -12 -6 -9 -17 5 -15 3 -15 -10 1 -9 11 -16 26 -16 33 0 20
-20 16 -21 -4 0 -14 -2 -13 -9 5 -6 13 -18 22 -30 22 -12 0 -18 5 -15 10 5 8
-38 34 -48 29 -1 0 -8 -3 -14 -6z m60 -75 c4 -12 11 -18 20 -15 7 3 19 -4 25
-14 7 -10 21 -19 33 -19 12 0 17 -4 14 -11 -4 -6 -14 -8 -22 -5 -8 3 -22 2
-32 -4 -15 -8 -17 -6 -13 15 3 19 -1 25 -19 30 -13 3 -29 16 -35 29 -9 20 -8
23 7 19 9 -3 20 -14 22 -25z"/>
<path d="M1118 2101 c-14 -11 -31 -33 -37 -50 -16 -37 -11 -86 9 -86 19 0 90
105 87 130 -3 27 -28 30 -59 6z"/>
<path d="M988 2022 c-19 -23 -27 -27 -42 -18 -14 9 -21 6 -37 -13 -10 -13 -19
-32 -19 -42 0 -12 -7 -19 -19 -19 -25 0 -35 -29 -22 -63 7 -19 15 -24 30 -20
28 7 44 29 38 53 -3 13 1 21 15 26 10 3 24 17 30 30 9 19 16 22 37 17 14 -3
27 -6 28 -7 1 -1 -7 -12 -18 -25 l-19 -23 0 23 c0 22 0 22 -30 -6 -34 -33 -37
-43 -14 -52 11 -4 22 1 30 12 13 17 14 16 14 -13 0 -38 9 -40 43 -8 29 27 43
67 32 93 -4 10 -8 32 -9 48 -1 42 -35 46 -68 7z"/>
<path d="M3493 2009 c-9 -9 -8 -19 3 -40 22 -44 48 -53 90 -33 41 19 40 31 -6
62 -36 24 -70 28 -87 11z"/>
<path d="M634 1955 c-20 -48 -30 -125 -16 -125 37 0 60 22 82 76 23 55 23 57
5 70 -32 24 -55 17 -71 -21z"/>
<path d="M3763 1984 c-20 -9 -15 -28 12 -54 32 -30 60 -18 60 26 0 25 -4 29
-30 31 -16 1 -36 0 -42 -3z"/>
<path d="M4050 1959 c0 -18 -3 -19 -15 -9 -18 15 -35 5 -35 -20 0 -19 44 -39
57 -27 3 4 17 -3 31 -13 27 -22 52 -26 52 -10 0 21 -30 69 -52 84 -30 21 -38
20 -38 -5z"/>
<path d="M3852 1934 c-27 -19 -28 -32 -3 -58 20 -21 20 -21 -18 -21 -30 -1
-37 3 -37 18 1 24 -47 62 -68 54 -22 -9 -20 -49 5 -81 16 -20 24 -24 38 -16
15 8 17 6 14 -14 -4 -19 1 -25 28 -35 68 -23 95 -10 77 38 -7 19 -4 29 13 47
24 26 22 51 -6 70 -18 12 -24 11 -43 -2z"/>
<path d="M737 1925 c-20 -19 -40 -81 -32 -95 12 -20 75 -11 100 15 33 32 31
51 -7 75 -40 24 -42 24 -61 5z"/>
<path d="M3583 1923 c-7 -2 -13 -17 -13 -32 0 -28 20 -53 52 -64 20 -7 88 10
88 23 0 5 -15 25 -34 44 -32 34 -60 43 -93 29z"/>
<path d="M3954 1895 c-6 -14 31 -75 45 -75 13 0 31 24 31 41 0 39 -64 67 -76
34z"/>
<path d="M4040 1866 c0 -18 78 -88 93 -83 7 2 13 15 15 30 3 21 -4 31 -30 47
-38 23 -78 26 -78 6z"/>
<path d="M925 1847 c-32 -18 -40 -28 -40 -51 0 -16 6 -31 13 -34 18 -6 82 62
82 87 0 26 -5 26 -55 -2z"/>
<path d="M3910 1826 c0 -37 28 -66 62 -66 28 0 23 47 -8 75 -38 35 -54 32 -54
-9z"/>
<path d="M813 1833 c-16 -6 -17 -53 -2 -53 6 0 -3 -14 -21 -30 -21 -19 -30
-36 -26 -46 3 -9 6 -18 6 -20 0 -12 26 0 61 28 36 29 53 68 29 68 -5 0 -7 13
-3 30 4 25 2 30 -13 29 -11 0 -25 -3 -31 -6z"/>
<path d="M3667 1818 c-36 -13 -32 -35 12 -65 41 -28 52 -28 81 -5 l22 18 -27
32 c-28 34 -42 37 -88 20z"/>
<path d="M4012 1810 c-16 -26 -15 -45 3 -60 23 -19 18 -32 -7 -16 -27 17 -92
31 -107 22 -10 -7 49 -102 77 -123 19 -15 88 -17 97 -3 3 5 -1 23 -10 41 -16
30 -16 31 5 24 28 -9 50 11 50 45 0 19 -11 36 -39 58 -47 38 -52 38 -69 12z"/>
<path d="M595 1776 c-4 -25 -5 -51 -3 -58 3 -7 -2 -19 -9 -27 -16 -16 -13 -73
4 -78 6 -2 20 8 29 22 14 22 15 31 6 46 -9 14 -9 20 2 26 15 8 46 76 46 99 0
9 -12 14 -34 14 -33 0 -35 -2 -41 -44z"/>
<path d="M687 1804 c-9 -9 -9 -78 -1 -87 9 -9 84 31 91 49 3 8 2 19 -3 24 -13
12 -78 23 -87 14z"/>
<path d="M3785 1746 c-25 -18 -14 -41 34 -66 46 -23 111 -27 111 -6 0 19 -45
64 -75 76 -35 13 -48 13 -70 -4z"/>
<path d="M710 1705 c-7 -8 -10 -19 -6 -22 9 -9 38 8 38 22 -1 16 -18 16 -32 0z"/>
<path d="M645 1700 c-8 -13 3 -50 15 -50 13 0 32 39 25 50 -8 13 -32 13 -40 0z"/>
<path d="M724 1654 c-12 -17 -19 -21 -25 -13 -4 6 -15 9 -24 5 -21 -8 -15 -42
7 -38 8 1 21 -5 28 -13 18 -22 28 -19 45 15 31 60 5 99 -31 44z"/>
<path d="M626 1623 c-3 -3 -6 -17 -6 -31 0 -21 2 -22 15 -12 8 7 15 18 15 26
0 15 -15 26 -24 17z"/>
<path d="M564 1576 c-3 -14 -2 -31 2 -38 5 -7 7 -25 5 -40 -3 -30 11 -42 39
-33 25 8 26 31 1 45 -16 8 -18 17 -14 50 5 32 3 40 -10 40 -9 0 -19 -11 -23
-24z"/>
<path d="M659 1575 c-46 -25 -49 -65 -5 -65 28 0 59 32 54 56 -4 23 -18 26
-49 9z"/>
<path d="M4191 1260 c-105 -22 -168 -75 -178 -149 -13 -97 59 -151 235 -175
113 -16 143 -30 119 -53 -26 -26 -132 -18 -198 14 l-57 29 -51 -36 c-27 -19
-50 -40 -51 -46 0 -14 38 -48 75 -67 53 -27 117 -39 202 -38 177 0 283 67 283
178 0 92 -65 135 -235 158 -112 14 -125 19 -125 39 0 40 153 31 202 -12 16
-13 22 -11 65 23 27 22 50 40 52 42 11 8 -46 53 -90 73 -57 24 -181 34 -248
20z"/>
<path d="M430 1175 l0 -75 80 0 80 0 0 -175 0 -175 100 0 100 0 0 175 0 175
80 0 80 0 0 75 0 75 -260 0 -260 0 0 -75z"/>
<path d="M1020 1105 c0 -171 11 -229 50 -277 47 -57 107 -80 220 -86 116 -5
192 13 245 60 64 56 69 73 73 271 l4 177 -101 0 -101 0 0 -145 c0 -84 -5 -154
-11 -168 -23 -50 -100 -62 -146 -23 l-28 24 -3 156 -4 156 -99 0 -99 0 0 -145z"/>
<path d="M1710 1001 l0 -251 100 0 100 0 0 80 0 80 31 0 c45 0 64 -14 98 -75
38 -67 79 -95 142 -95 45 0 105 15 123 30 4 5 3 24 -4 44 -10 30 -16 36 -40
36 -22 0 -33 8 -51 38 -13 20 -30 42 -39 49 -13 10 -11 12 12 18 33 8 85 65
94 101 16 64 -15 133 -77 169 -31 18 -55 20 -261 23 l-228 3 0 -250z m350 109
c47 -47 14 -80 -81 -80 l-69 0 0 50 0 50 65 0 c52 0 69 -4 85 -20z"/>
<path d="M2360 1175 l0 -75 80 0 80 0 0 -175 0 -175 100 0 100 0 0 175 0 175
80 0 80 0 0 75 0 75 -260 0 -260 0 0 -75z"/>
<path d="M2960 1000 l0 -250 215 0 215 0 0 80 0 80 -115 0 -115 0 0 170 0 170
-100 0 -100 0 0 -250z"/>
<path d="M3480 1000 l0 -250 230 0 231 0 -3 68 -3 67 -132 3 -133 3 0 29 0 30
115 0 115 0 0 55 0 55 -115 0 -115 0 0 30 0 30 130 0 130 0 0 65 0 65 -225 0
-225 0 0 -250z"/>
</g>
</svg>
